<svg xmlns="http://www.w3.org/2000/svg" version="1.1" xmlns:xlink="http://www.w3.org/1999/xlink" viewBox="0 0 200 200"><rect width="200" height="200" fill="url('#gradient')"></rect><defs><linearGradient id="gradient" gradientTransform="rotate(45 0.5 0.5)"><stop offset="0%" stop-color="#dee90b"></stop><stop offset="100%" stop-color="#d9e241"></stop></linearGradient></defs><g><g fill="#1b3855" transform="matrix(1.6424927688666842,0,0,1.6424927688666842,37.444724032858815,108.81318449541483)" stroke="#0e5278" stroke-width="0.2"><path d="M10.73-5.36L10.73-5.20Q10.73-2.60 9.66-1.20Q8.58 0.20 6.63 0.20L6.63 0.20Q5.02 0.20 4.03-1.08L4.03-1.08L3.90 0L0.95 0L0.95-15L4.24-15L4.24-9.72Q5.16-10.76 6.61-10.76L6.61-10.76Q8.58-10.76 9.66-9.35Q10.73-7.93 10.73-5.36L10.73-5.36ZM7.43-5.40L7.43-5.40Q7.43-6.92 7.03-7.57Q6.62-8.22 5.78-8.22L5.78-8.22Q4.67-8.22 4.24-7.37L4.24-7.37L4.24-3.17Q4.66-2.33 5.80-2.33L5.80-2.33Q6.96-2.33 7.28-3.47L7.28-3.47Q7.43-4.02 7.43-5.40ZM15.65-15L15.65 0L12.35 0L12.35-15L15.65-15ZM20.23-10.57L21.90-4.61L23.66-10.57L27.19-10.57L22.88 1.77L22.70 2.22Q21.78 4.27 19.45 4.27L19.45 4.27Q18.81 4.27 18.10 4.07L18.10 4.07L18.10 1.72L18.53 1.72Q19.22 1.72 19.58 1.52Q19.95 1.32 20.13 0.80L20.13 0.80L20.39 0.10L16.72-10.57L20.23-10.57ZM37.14 0L33.85 0Q33.67-0.32 33.54-0.95L33.54-0.95Q32.63 0.20 31.00 0.20L31.00 0.20Q29.50 0.20 28.46-0.71Q27.41-1.61 27.41-2.98L27.41-2.98Q27.41-4.70 28.68-5.58Q29.95-6.46 32.37-6.46L32.37-6.46L33.39-6.46L33.39-7.01Q33.39-8.47 32.13-8.47L32.13-8.47Q30.96-8.47 30.96-7.31L30.96-7.31L27.67-7.31Q27.67-8.85 28.97-9.80Q30.27-10.76 32.29-10.76Q34.32-10.76 35.49-9.78Q36.66-8.79 36.69-7.07L36.69-7.07L36.69-2.39Q36.71-0.94 37.14-0.17L37.14-0.17L37.14 0ZM31.79-2.15L31.79-2.15Q32.40-2.15 32.81-2.41Q33.21-2.68 33.39-3.01L33.39-3.01L33.39-4.70L32.43-4.70Q30.71-4.70 30.71-3.15L30.71-3.15Q30.71-2.71 31.02-2.43Q31.32-2.15 31.79-2.15ZM38.10-5.39L38.10-5.39Q38.10-7.91 39.19-9.34Q40.28-10.76 42.21-10.76L42.21-10.76Q43.83-10.76 44.80-9.43L44.80-9.43L45.04-10.57L47.89-10.57L47.89 4.06L44.59 4.06L44.59-0.88Q43.64 0.20 42.19 0.20L42.19 0.20Q40.31 0.20 39.20-1.25Q38.10-2.71 38.10-5.39ZM41.40-5.77L41.39-5.19Q41.39-2.34 43.03-2.34L43.03-2.34Q44.16-2.34 44.59-3.20L44.59-3.20L44.59-7.38Q44.18-8.22 43.05-8.22L43.05-8.22Q41.51-8.22 41.40-5.77L41.40-5.77ZM56.14 0L56.04-1.14Q55 0.20 53.22 0.20L53.22 0.20Q51.48 0.20 50.59-0.82Q49.70-1.83 49.70-3.72L49.70-3.72L49.70-10.57L52.99-10.57L52.99-3.70Q52.99-2.34 54.31-2.34L54.31-2.34Q55.44-2.34 55.92-3.15L55.92-3.15L55.92-10.57L59.23-10.57L59.23 0L56.14 0ZM64.50-10.57L64.50 0L61.20 0L61.20-10.57L64.50-10.57ZM61.01-13.29L61.01-13.29Q61.01-13.99 61.51-14.44Q62.02-14.89 62.83-14.89Q63.64-14.89 64.15-14.44Q64.66-13.99 64.66-13.29Q64.66-12.59 64.15-12.14Q63.64-11.69 62.83-11.69Q62.02-11.69 61.51-12.14Q61.01-12.59 61.01-13.29ZM75.12-8.79L70.41-2.54L75.22-2.54L75.22 0L66.25 0L66.25-1.84L70.94-8.03L66.46-8.03L66.46-10.57L75.12-10.57L75.12-8.79Z"></path></g></g></svg>